<?xml version="1.0" encoding="utf-8"?><svg xmlns="http://www.w3.org/2000/svg" xmlns:xlink="http://www.w3.org/1999/xlink"><symbol viewBox="0 0 200 200" id="arrow-left" xmlns="http://www.w3.org/2000/svg"><path d="M13.97 103.942c.013.05.074.102.099.152.599 1.423 1.421 2.782 2.566 3.954.013.011.026.011.038.025.013.011.013.025.025.038l61.86 62.7c4.858 4.91 12.73 4.95 17.613.027 4.872-4.91 4.883-12.881.024-17.804l-40.22-40.77h118.748c6.878 0 12.458-5.64 12.458-12.589 0-6.95-5.58-12.591-12.458-12.591H55.313L96.62 45.786c4.896-4.897 4.933-12.855.1-17.804a12.332 12.332 0 00-8.857-3.738 12.388 12.388 0 00-8.756 3.639L16.722 90.244c-3.673 3.689-4.607 9.128-2.752 13.698zm0 0z"/></symbol><symbol viewBox="0 0 200 200" id="arrow-right" xmlns="http://www.w3.org/2000/svg"><path d="M186.254 94.814c-.013-.05-.074-.102-.099-.152-.599-1.423-1.421-2.782-2.567-3.954-.012-.011-.026-.011-.037-.025-.013-.011-.013-.025-.025-.038l-61.86-62.7c-4.858-4.91-12.73-4.95-17.613-.027-4.872 4.91-4.884 12.881-.025 17.803l40.22 40.77H25.5c-6.877 0-12.457 5.64-12.457 12.59s5.58 12.59 12.457 12.59h119.411l-41.308 41.298c-4.896 4.898-4.932 12.855-.1 17.804a12.331 12.331 0 008.858 3.739c3.164 0 6.326-1.222 8.756-3.64l62.385-62.361c3.673-3.688 4.607-9.127 2.752-13.697zm0 0z"/></symbol><symbol viewBox="0 0 28 16" fill="none" id="arrow-right-new" xmlns="http://www.w3.org/2000/svg"><path d="M21.514 6.901L14.728.446c-.625-.595-1.667-.595-2.292 0a1.502 1.502 0 000 2.181l4.006 3.834H1.622C.717 6.46 0 7.144 0 8.003s.718 1.542 1.621 1.542h14.821l-4.006 3.811a1.502 1.502 0 000 2.181c.324.309.74.463 1.158.463.417 0 .833-.154 1.158-.463l6.762-6.433c.3-.286.486-.683.486-1.101 0-.419-.162-.815-.486-1.102z" fill="#2B2B2B"/></symbol><symbol viewBox="0 0 200 200" id="back" xmlns="http://www.w3.org/2000/svg"><path d="M96.28 12.504L12.475 73.812 96.28 135.12V97.652s10.872-.009 28.669-.009c48.966 0 62.435 39.798 62.435 39.798s-.377-87.457-62.457-87.457c-12.954 0-28.647-.008-28.647-.008V12.504z"/></symbol><symbol viewBox="0 0 30 24" id="book" xmlns="http://www.w3.org/2000/svg"><path fill-rule="evenodd" clip-rule="evenodd" d="M15.69 3.242L4 .016a.445.445 0 00-.377.067L.17 2.586a.405.405 0 00-.15.455v15.622L12.113 22V6.147L1.624 3.213 4.03 1.61l10.484 2.94v14.949c0 .23.173.834.795.834.575 0 .691-.603.691-.834V3.642a.418.418 0 00-.31-.4z" fill="#121212"/></symbol><symbol fill="none" viewBox="0 0 36 36" id="cancel" xmlns="http://www.w3.org/2000/svg"><g clip-path="url(#fclip0)"><path d="M18 36c9.941 0 18-8.059 18-18S27.941 0 18 0 0 8.059 0 18s8.059 18 18 18z" fill="#E24C4B"/><path d="M36 18c0 9.9-8.1 18-18 18-5.738 0-10.8-2.587-14.063-6.75 3.038 2.475 6.976 3.938 11.25 3.938 9.9 0 18-8.1 18-18 0-4.275-1.462-8.213-3.937-11.25C33.413 7.2 36 12.262 36 18z" fill="#D1403F"/><path d="M26.212 26.213c-.674.675-1.8.675-2.475 0L18 20.475l-5.738 5.738c-.675.675-1.8.675-2.475 0a1.766 1.766 0 010-2.475L15.525 18l-5.738-5.737a1.766 1.766 0 010-2.475 1.766 1.766 0 012.475 0L18 15.525l5.737-5.737a1.766 1.766 0 012.476 0c.674.675.674 1.8 0 2.475L20.474 18l5.737 5.738c.675.675.675 1.8 0 2.475z" fill="#fff"/></g><defs><clipPath id="fclip0"><path fill="#fff" d="M0 0h36v36H0z"/></clipPath></defs></symbol><symbol viewBox="0 0 200 200" id="check" xmlns="http://www.w3.org/2000/svg"><path d="M186.496 63.17q0 4.464-3.125 7.589l-80.804 80.803-15.179 15.18q-3.125 3.124-7.589 3.124t-7.59-3.125l-15.178-15.179-40.402-40.401q-3.125-3.125-3.125-7.59t3.125-7.589l15.179-15.178q3.125-3.125 7.59-3.125t7.589 3.125l32.812 32.924 73.214-73.326q3.125-3.125 7.59-3.125t7.589 3.125l15.179 15.178q3.125 3.125 3.125 7.59z"/></symbol><symbol fill="none" viewBox="0 0 18 18" id="circle-checkbox" xmlns="http://www.w3.org/2000/svg"><path d="M9 18A9 9 0 109 0a9 9 0 000 18z" fill="#A7E41D"/><path d="M6.7 13.06l4.628 4.628C15.161 16.666 18 13.174 18 9v-.256l-3.634-3.35L6.7 13.06z" fill="#9DDB12"/><path d="M9.227 11.016a1.063 1.063 0 010 1.476l-.823.823a1.063 1.063 0 01-1.477 0L3.322 9.681a1.063 1.063 0 010-1.476l.823-.823a1.063 1.063 0 011.476 0l3.606 3.634z" fill="#fff"/><path d="M12.378 4.741a1.063 1.063 0 011.476 0l.824.824a1.063 1.063 0 010 1.476l-6.246 6.218a1.063 1.063 0 01-1.477 0l-.823-.824a1.063 1.063 0 010-1.476l6.246-6.218z" fill="#fff"/></symbol><symbol fill="none" viewBox="0 0 12 12" id="close" xmlns="http://www.w3.org/2000/svg"><path d="M.1.205L.147.148A.507.507 0 01.808.1l.057.05L6 5.282 11.135.148a.507.507 0 11.717.717L6.716 6l5.136 5.135c.18.18.196.461.049.66l-.05.057a.507.507 0 01-.66.049l-.056-.05L6 6.717.865 11.852a.507.507 0 11-.717-.717L5.283 6 .148.865A.507.507 0 01.1.205L.15.148l-.05.057z" fill="#BBB" fill-opacity=".8"/></symbol><symbol viewBox="0 0 25 25" id="cog" xmlns="http://www.w3.org/2000/svg"><path d="M10.995 0a.821.821 0 00-.18.01.898.898 0 00-.852.661c-.153.557-.358 1.107-.582 1.484-.223.377-.432.533-.54.561-.108.028-.365-.009-.743-.23-.377-.222-.818-.6-1.222-1.013a.898.898 0 00-1.073-.17 11.019 11.019 0 00-2.716 2.055.898.898 0 00-.13 1.072c.286.5.521 1.03.631 1.453.11.423.066.677.01.772-.056.096-.249.25-.671.36-.423.112-1.009.157-1.584.151a.898.898 0 00-.872.652A10.9 10.9 0 000 10.995c0 .134.01.209.01.2a.898.898 0 00.661.852c.557.152 1.098.351 1.474.572.375.22.534.435.561.54.028.107-.008.355-.23.732-.223.378-.6.829-1.013 1.233a.898.898 0 00-.17 1.053 11.034 11.034 0 002.055 2.726.898.898 0 001.072.14c.502-.286 1.037-.531 1.463-.641.427-.11.678-.066.772-.01.096.056.261.258.37.681.11.424.149 1.007.141 1.584a.899.899 0 00.642.862c1.008.305 2.076.481 3.187.481.14 0 .185-.01.15-.01a.898.898 0 00.862-.661c.154-.556.357-1.106.582-1.484.224-.378.442-.523.55-.551.108-.028.366 0 .742.22.377.224.819.608 1.223 1.023a.898.898 0 001.063.17 11.056 11.056 0 002.736-2.065.898.898 0 00.13-1.072c-.288-.502-.53-1.038-.641-1.463-.112-.426-.066-.677-.01-.772.057-.098.255-.26.681-.37.427-.112 1.014-.158 1.594-.151a.899.899 0 00.872-.642c.302-1.004.471-2.074.471-3.177 0-.136-.01-.19-.01-.17a.899.899 0 00-.661-.852c-.555-.153-1.108-.348-1.484-.572-.375-.223-.522-.44-.551-.55-.028-.11 0-.366.22-.742.22-.377.6-.82 1.013-1.223a.898.898 0 00.17-1.063 11.04 11.04 0 00-2.055-2.726.898.898 0 00-1.072-.13c-.502.287-1.04.521-1.463.631-.424.11-.675.067-.772.01-.1-.059-.25-.257-.36-.681-.112-.425-.158-1.005-.151-1.584a.898.898 0 00-.652-.872A10.974 10.974 0 0010.995 0zm0 6.284c2.595 0 4.72 2.116 4.72 4.711s-2.125 4.72-4.72 4.72c-2.595 0-4.71-2.125-4.71-4.72a4.72 4.72 0 014.71-4.71z" fill="#2B2B2B"/></symbol><symbol fill="none" viewBox="0 0 18 18" id="cursor" xmlns="http://www.w3.org/2000/svg"><path d="M9.893 1.02a7.726 7.726 0 00-2.97.37 7.67 7.67 0 00-2.6 1.468 7.578 7.578 0 00-1.83 2.344 7.505 7.505 0 00-.78 2.859.45.45 0 00.274.445c.058.024.12.037.182.037a.495.495 0 00.5-.465A6.58 6.58 0 013.991 4.59 6.687 6.687 0 017.011 2.36a6.76 6.76 0 013.757-.263c1.252.27 2.399.89 3.305 1.786a6.601 6.601 0 011.808 3.269 6.555 6.555 0 01-.263 3.717 6.628 6.628 0 01-2.25 2.988 6.736 6.736 0 01-3.525 1.313.522.522 0 00-.343.16.512.512 0 00-.14.348.439.439 0 00.294.416c.058.02.119.029.18.025a7.683 7.683 0 005.083-2.362A7.525 7.525 0 0017 8.598a7.523 7.523 0 00-2.042-5.177A7.682 7.682 0 009.893 1.02z" fill="#85BD08"/><path d="M11.79 3.394C7.728 1.712 3.83 4.49 3.617 8.243a.277.277 0 00.168.277.286.286 0 00.113.023h.352a.33.33 0 00.22-.086.324.324 0 00.105-.21c.216-3.179 3.603-5.487 7.056-3.88a4.103 4.103 0 011.96 1.93c1.66 3.484-.793 6.893-4.092 7a.146.146 0 00-.098.044.143.143 0 00-.042.098v.464a.297.297 0 00.183.317c.04.017.085.025.129.023 3.802-.211 6.614-4.084 4.89-8.112a5.166 5.166 0 00-2.771-2.737z" fill="#85BD08"/><path d="M8.505 8.555l-4.66 1.148a.778.778 0 00-.549.536.76.76 0 00.189.74l1.075 1.047-3.272 3.284a.993.993 0 00-.288.705.984.984 0 00.3.7 1.003 1.003 0 00.713.285 1.014 1.014 0 00.707-.297l3.272-3.298 1.075 1.05a.766.766 0 00.76.194.766.766 0 00.532-.572L9.436 9.46a.75.75 0 00-.208-.713.767.767 0 00-.723-.195v.002z" fill="#85BD08"/></symbol><symbol fill="none" viewBox="0 0 15 15" id="ic-audio" xmlns="http://www.w3.org/2000/svg"><path d="M14.59.244a1.047 1.047 0 00-.882-.223L4.333 1.866c-.504.095-.867.54-.867 1.065v7.521a2.919 2.919 0 00-.661-.063C1.229 10.389 0 11.406 0 12.694 0 13.982 1.229 15 2.805 15c1.575 0 2.804-1.018 2.804-2.306V3.806l7.232-1.431v6.217a2.924 2.924 0 00-.661-.064c-1.56 0-2.79 1.018-2.79 2.306s1.23 2.306 2.805 2.306c1.576 0 2.805-1.018 2.805-2.306V1.071a1.136 1.136 0 00-.41-.827z" fill="#85BD08"/></symbol><symbol fill="none" viewBox="0 0 30 16" id="ic-dropdown" xmlns="http://www.w3.org/2000/svg"><g clip-path="url(#mclip0)"><path fill-rule="evenodd" clip-rule="evenodd" d="M16.686 15.488L29.474 3.029c.701-.725.701-1.834 0-2.517-.7-.683-1.839-.683-2.584 0L15.372 11.733 3.854.512c-.7-.683-1.883-.683-2.584 0-.7.683-.7 1.792 0 2.517l12.832 12.459c.7.683 1.84.683 2.584 0z" fill="#2B2B2B"/></g><defs><clipPath id="mclip0"><path fill="#fff" transform="rotate(90 15 15)" d="M0 0h16v30H0z"/></clipPath></defs></symbol><symbol fill="none" viewBox="0 0 14 14" id="ic-link" xmlns="http://www.w3.org/2000/svg"><path d="M8.85 1.866H13.068l-.93-.93V5.152c0 .239.103.489.272.658a.95.95 0 00.657.273c.24-.011.49-.09.658-.273a.966.966 0 00.273-.658V3.731 1.455v-.52a.944.944 0 00-.93-.93H8.85a.958.958 0 00-.657.273.952.952 0 00-.273.657c.011.24.09.49.273.658a.962.962 0 00.658.273z" fill="#fff"/><path d="M6.728 8.592l.696-.696 1.672-1.673 2.022-2.022 1.747-1.749c.284-.283.57-.564.85-.85A.958.958 0 0014 .932c0-.228-.1-.5-.273-.657-.177-.163-.41-.284-.657-.273a.968.968 0 00-.658.273l-.696.696c-.56.558-1.116 1.115-1.673 1.672L8.021 4.666 6.274 6.414c-.284.284-.57.565-.85.85l-.012.013a.959.959 0 00-.273.657c0 .228.1.502.273.658.178.163.41.284.659.273a.968.968 0 00.657-.273z" fill="#fff"/><path d="M12.138 8.567v3.061c0 .17.012.347-.011.517l.033-.249c-.014.09-.038.176-.072.26l.093-.22c-.037.088-.085.168-.142.246l.145-.188a1.218 1.218 0 01-.2.2l.188-.146a1.146 1.146 0 01-.247.143l.222-.093c-.084.034-.17.057-.26.071l.248-.032c-.127.017-.26.01-.388.01H3.198c-.394 0-.788.004-1.18 0-.053 0-.106-.002-.158-.01l.248.032a1.178 1.178 0 01-.26-.071l.22.093a1.184 1.184 0 01-.246-.143l.188.146a1.217 1.217 0 01-.2-.2l.146.188a1.148 1.148 0 01-.143-.247l.093.222a1.159 1.159 0 01-.071-.26l.032.248c-.017-.128-.01-.26-.01-.388v-.72-2.401-2.92-2.513c0-.394-.004-.788 0-1.18 0-.053.003-.106.01-.158l-.032.248c.014-.09.037-.176.071-.26-.03.074-.062.148-.093.221.037-.088.085-.17.143-.247l-.146.188a1.22 1.22 0 01.2-.2l-.188.146c.076-.058.159-.106.247-.143a32.13 32.13 0 00-.222.093c.084-.034.17-.057.26-.071l-.247.032c.142-.018.291-.01.435-.01h3.14a.958.958 0 00.657-.274.952.952 0 00.273-.657c-.01-.24-.09-.49-.273-.658A.965.965 0 005.435 0H2.239c-.27 0-.547 0-.809.085a1.866 1.866 0 00-.529.253C.802.411.695.488.605.576.51.667.432.779.352.884c-.23.31-.34.72-.35 1.103-.005.194 0 .388 0 .582V11.504c0 .315-.006.613.05.924.01.062.028.121.05.18.046.126.097.253.16.371.09.163.21.317.343.445.272.262.633.472 1.008.532.177.028.34.044.515.044H11.85c.07 0 .141.001.21-.003a1.96 1.96 0 00.582-.112c.118-.047.24-.093.35-.157a2.45 2.45 0 00.331-.243 1.988 1.988 0 00.598-.956c.075-.262.075-.524.075-.79v-.842V8.93 8.56a.959.959 0 00-.273-.658.95.95 0 00-.657-.273c-.24.011-.49.09-.658.273a.988.988 0 00-.271.664z" fill="#fff"/></symbol><symbol fill="none" viewBox="0 0 18 18" id="ic-picture" xmlns="http://www.w3.org/2000/svg"><path d="M5.756 5.687a1.103 1.103 0 00-1.022.686 1.117 1.117 0 00.24 1.212 1.105 1.105 0 001.89-.786A1.116 1.116 0 006.18 5.77a1.103 1.103 0 00-.423-.084zM14.2 3H2.8c-.477 0-.935.19-1.273.53C1.19 3.869 1 4.329 1 4.808v7.384c0 .48.19.94.527 1.278.338.34.796.53 1.273.53h11.4c.477 0 .935-.19 1.273-.53.337-.339.527-.799.527-1.278V4.808c0-.48-.19-.94-.527-1.278A1.796 1.796 0 0014.2 3zm.9 9.192a.906.906 0 01-.9.904h-.14a1.285 1.285 0 00-.165-.452L10.9 7.42c-.412-.718-1.088-.718-1.5 0l-2.388 4.142-.637-1.077c-.422-.713-1.112-.713-1.534 0l-1.291 2.17a1.29 1.29 0 00-.17.44H2.8a.898.898 0 01-.9-.903V4.808a.906.906 0 01.9-.904h11.4a.898.898 0 01.9.904v7.384z" fill="#85BD08"/></symbol><symbol fill="none" viewBox="0 0 15 12" id="ic-playlist" xmlns="http://www.w3.org/2000/svg"><path d="M7.192 9.69H.932C.412 9.69 0 10.22 0 10.845 0 11.472.427 12 .933 12h6.259c.521 0 .932-.528.932-1.155 0-.626-.41-1.155-.932-1.155zM7.192 4.835H.932C.412 4.835 0 5.364 0 5.99c0 .627.427 1.155.933 1.155h6.259c.521 0 .932-.528.932-1.155 0-.626-.41-1.155-.932-1.155zM14.083 0H.933C.41 0 0 .529 0 1.155S.427 2.31.933 2.31h13.134c.522 0 .933-.529.933-1.155S14.589 0 14.083 0zM14.557 7.498L11.16 5.09c-.585-.411-1.296.098-1.296.94v4.796c0 .822.711 1.33 1.296.94l3.398-2.409c.57-.41.57-1.448 0-1.86z" fill="#85BD08"/></symbol><symbol fill="none" viewBox="0 0 15 15" id="ic-problem" xmlns="http://www.w3.org/2000/svg"><circle cx="7.5" cy="7.5" r="7.5" fill="#85BD08"/><rect x="6.25" y="1.875" width="2.5" height="7.5" rx="1.25" fill="#fff"/><circle cx="7.5" cy="11.25" r="1.25" fill="#fff"/></symbol><symbol fill="none" viewBox="0 0 15 15" id="ic-settings" xmlns="http://www.w3.org/2000/svg"><path d="M7.497 0a.56.56 0 00-.123.007.612.612 0 00-.581.45c-.104.38-.244.755-.397 1.012-.152.257-.294.364-.369.383-.073.019-.248-.006-.505-.157-.258-.152-.559-.409-.834-.69a.612.612 0 00-.731-.117A7.513 7.513 0 002.105 2.29a.612.612 0 00-.089.731c.195.342.356.703.43.991.076.288.045.462.007.527s-.17.17-.458.246c-.288.075-.687.106-1.08.102a.612.612 0 00-.594.444A7.432 7.432 0 000 7.497c0 .09.007.142.007.136a.612.612 0 00.45.581c.38.104.75.24 1.005.39.256.15.364.296.383.369.019.072-.006.241-.157.498a4.439 4.439 0 01-.69.841.612.612 0 00-.117.718c.37.69.842 1.318 1.401 1.858a.613.613 0 00.732.096c.342-.195.707-.362.997-.437.29-.075.462-.045.527-.007s.178.176.252.465c.075.288.101.686.096 1.08a.613.613 0 00.437.587A7.483 7.483 0 007.497 15c.095 0 .125-.007.102-.007a.612.612 0 00.588-.45c.104-.38.243-.754.396-1.012.153-.258.302-.357.376-.376.073-.02.249 0 .506.15.257.152.557.414.833.697a.613.613 0 00.725.116 7.539 7.539 0 001.865-1.407.613.613 0 00.09-.731c-.197-.342-.362-.708-.438-.998-.076-.29-.045-.461-.007-.526.04-.067.174-.178.465-.253.29-.076.691-.108 1.086-.103a.612.612 0 00.595-.437A7.522 7.522 0 0015 7.497c0-.093-.007-.13-.007-.117a.612.612 0 00-.45-.58c-.38-.104-.756-.238-1.012-.39-.256-.152-.357-.3-.376-.376-.02-.074 0-.249.15-.505.15-.257.41-.559.69-.834a.613.613 0 00.117-.725 7.53 7.53 0 00-1.401-1.858.613.613 0 00-.732-.09 4.395 4.395 0 01-.997.431c-.289.075-.46.046-.526.007-.068-.04-.17-.175-.246-.465-.076-.29-.108-.685-.103-1.08a.612.612 0 00-.444-.594A7.482 7.482 0 007.497 0zm0 4.285a3.224 3.224 0 013.218 3.212 3.23 3.23 0 01-3.218 3.218 3.224 3.224 0 01-3.212-3.218 3.218 3.218 0 013.212-3.212z" fill="#85BD08"/></symbol><symbol viewBox="0 0 96 96" id="icon" xmlns="http://www.w3.org/2000/svg"><path d="M87.17 17.8L48 0 8.83 17.81 4 20v56l40 18.18L48 96l4-1.82L92 76V20zM48 8.79L77.5 22.2 48 35.61 18.49 22.2zM12 70.85l32.435 14.867L44 42.57v42.82zm72 0L52 85.39V42.57l32-14.54z"/></symbol><symbol fill="none" viewBox="0 0 36 36" id="loader" xmlns="http://www.w3.org/2000/svg"><circle cx="18" cy="18" r="15" stroke="#A7E41D" stroke-opacity=".2" stroke-width="6"/><path d="M33 18c0 8.284-6.716 15-15 15-8.284 0-15-6.716-15-15" stroke="#A7E41D" stroke-width="6" stroke-linecap="round"/></symbol><symbol viewBox="0 0 200 200" id="question" xmlns="http://www.w3.org/2000/svg"><path d="M100 22.15c-42.928 0-77.852 34.925-77.852 77.854 0 42.924 34.924 77.846 77.852 77.846s77.852-34.922 77.852-77.846c0-42.929-34.924-77.854-77.852-77.854zm7.855 134.704H92.221V141.22h15.634v15.634zm24.786-69.704c-2.288 4.118-6.763 9.126-13.423 15.024-4.474 3.965-7.397 6.89-8.77 8.77-1.373 1.881-2.39 4.042-3.05 6.482-.662 2.44-1.043 6.406-1.144 11.897H93.06c-.051-1.83-.076-3.203-.076-4.118 0-5.388.762-10.04 2.288-13.956 1.117-2.948 2.923-5.922 5.414-8.923 1.83-2.185 5.122-5.377 9.876-9.57 4.754-4.195 7.842-7.538 9.266-10.03 1.423-2.49 2.136-5.21 2.136-8.16 0-5.338-2.086-10.029-6.254-14.07-4.17-4.043-9.279-6.063-15.329-6.063-5.847 0-10.728 1.83-14.643 5.49-3.915 3.661-6.482 9.38-7.702 17.16l-14.109-1.678c1.27-10.422 5.045-18.404 11.325-23.947 6.279-5.54 14.579-8.312 24.9-8.312 10.93 0 19.65 2.974 26.159 8.922 6.507 5.949 9.761 13.144 9.761 21.583 0 4.88-1.143 9.38-3.431 13.499z"/></symbol><symbol fill="none" viewBox="0 0 14 14" id="refresh" xmlns="http://www.w3.org/2000/svg"><path d="M9.175 3.68h1.702a.189.189 0 01-.019-.016c-2.041-1.946-5.365-1.946-7.409 0a4.825 4.825 0 000 7.051c2.044 1.946 5.368 1.946 7.41 0a4.934 4.934 0 001.152-1.653c.198-.467.758-.692 1.249-.503.49.188.729.721.529 1.188a6.75 6.75 0 01-1.573 2.26C10.82 13.338 8.988 14 7.154 14c-1.832 0-3.665-.664-5.06-1.992-2.792-2.656-2.792-6.98 0-9.637C4.839-.242 9.28-.285 12.08 2.248V.913c0-.504.43-.913.96-.913S14 .41 14 .913v3.68c0 .506-.428.914-.96.914H9.176c-.53 0-.96-.408-.96-.913 0-.504.43-.914.96-.914z" fill="#85BD08"/></symbol><symbol viewBox="0 0 200 200" id="remove" xmlns="http://www.w3.org/2000/svg"><path d="M166.295 147.545q0 4.464-3.125 7.589l-15.179 15.179q-3.125 3.125-7.59 3.125t-7.589-3.125L100 137.5l-32.813 32.813q-3.125 3.125-7.589 3.125t-7.59-3.125l-15.178-15.18q-3.125-3.124-3.125-7.588t3.125-7.59l32.813-32.812L36.83 74.33q-3.125-3.125-3.125-7.589t3.125-7.59l15.18-15.177q3.125-3.125 7.59-3.125t7.588 3.125L100 76.786l32.812-32.813q3.125-3.125 7.59-3.125t7.59 3.125l15.178 15.179q3.125 3.125 3.125 7.59t-3.125 7.588l-32.813 32.813 32.813 32.812q3.125 3.125 3.125 7.59z"/></symbol><symbol viewBox="0 0 200.195 200" id="right-hand" xmlns="http://www.w3.org/2000/svg"><path d="M28.571 150q0-2.9-2.121-5.021t-5.021-2.122-5.022 2.122T14.286 150t2.121 5.021 5.022 2.122 5.021-2.122T28.571 150zm157.143-64.286q0-5.693-4.35-9.985t-9.935-4.3h-64.286q0-2.236 1.671-5.415t3.686-6.135 3.686-7.586 1.671-9.429q0-7.478-4.964-10.878T100 28.579q-2.679 0-10.043 15.514-2.678 4.914-4.128 7.257-4.465 7.143-12.5 16.186-7.922 9.043-11.272 11.828-7.7 6.365-15.628 6.365h-3.572v71.428h3.572q8.035 0 18.635 3.572t21.593 7.142 20.036 3.572q21.093 0 21.093-18.636 0-2.9-.557-6.25 3.35-1.786 5.3-5.857t1.95-8.2-2.008-7.7q5.915-5.579 5.915-13.279 0-2.792-1.115-6.192t-2.792-5.3h36.942q5.8 0 10.043-4.243t4.243-10.043zM200 85.6q0 11.721-8.429 20.2t-20.142 8.486h-18.865q-.45 6.921-4.128 13.278.335 2.343.335 4.8 0 11.272-6.7 19.865.115 15.514-9.485 24.5t-25.336 8.985q-14.843 0-35.936-7.7-18.3-6.585-24.885-6.585H14.286q-5.915 0-10.1-4.186T0 157.143V85.714q0-5.914 4.186-10.1t10.1-4.185h32.143q1.114 0 2.4-.5t2.621-1.565 2.514-2.007 2.679-2.514 2.286-2.4 2.121-2.4 1.564-1.9q7.257-8.257 11.165-14.4 1.45-2.343 3.685-6.922t4.129-8.035 4.521-7.029 6.136-5.521 7.757-1.95q13.95 0 23.05 7.478t9.093 21.093q0 7.586-2.457 14.286h41.743q11.607 0 20.085 8.486t8.486 19.978z"/></symbol><symbol viewBox="0 0 200 200" id="search" xmlns="http://www.w3.org/2000/svg"><path d="M195.138 171.55l-47.85-47.863c-.55-.562-1.175-.974-1.763-1.437 8.088-12.412 12.8-27.187 12.8-43.1 0-43.725-35.437-79.175-79.162-79.175C35.45-.012 0 35.438 0 79.163s35.463 79.162 79.163 79.162c15.912 0 30.7-4.725 43.125-12.812.45.587.875 1.187 1.412 1.75l47.863 47.875a16.65 16.65 0 0011.787 4.875 16.65 16.65 0 0011.788-4.875c6.487-6.513 6.487-17.075 0-23.588M79.163 133.325C49.3 133.325 25 109.025 25 79.163s24.313-54.175 54.163-54.175c29.862 0 54.162 24.312 54.162 54.175s-24.3 54.162-54.162 54.162"/></symbol></svg>